<svg id="Слой_1" data-name="Слой 1" xmlns="http://www.w3.org/2000/svg" xmlns:xlink="http://www.w3.org/1999/xlink" viewBox="0 0 47 32.75"><defs><linearGradient id="Безымянный_градиент_10" x1="442.94" y1="132.1" x2="489.94" y2="132.1" gradientUnits="userSpaceOnUse"><stop offset="0" stop-color="#009dff"/><stop offset="1" stop-color="#00f89c"/></linearGradient></defs><title>icon-picture</title><path d="M479,148.47H442.94v-21.8a11,11,0,0,1,10.95-10.95h36.05v21.8A11,11,0,0,1,479,148.47Z" transform="translate(-442.94 -115.72)" style="fill:url(#Безымянный_градиент_10)"/><path d="M473.54,123.89H459.35a2.07,2.07,0,0,0-2.07,2.07v13a2.07,2.07,0,0,0,2.07,2.07h14.18a2.07,2.07,0,0,0,2.07-2.07V126A2.07,2.07,0,0,0,473.54,123.89Zm-4.4,3.08a2,2,0,1,1-2,2A2,2,0,0,1,469.13,127Zm3.75,12.18h-12.6a.57.57,0,0,1-.55-.89l3.44-6.81a.58.58,0,0,1,1.06-.1l3.45,4.52A.85.85,0,0,0,469,136l.85-.86a.8.8,0,0,1,1.28.11l2.19,3.13C473.63,138.79,473.44,139.15,472.89,139.15Z" transform="translate(-442.94 -115.72)" style="fill:#f1f4fa"/></svg>