<svg id="Слой_1" data-name="Слой 1" xmlns="http://www.w3.org/2000/svg" xmlns:xlink="http://www.w3.org/1999/xlink" viewBox="0 0 47 32.75"><defs><linearGradient id="Безымянный_градиент_10" x1="260.94" y1="132.1" x2="307.94" y2="132.1" gradientUnits="userSpaceOnUse"><stop offset="0" stop-color="#009dff"/><stop offset="1" stop-color="#00f89c"/></linearGradient></defs><title>icon-video</title><path d="M297,148.47H260.94v-21.8a11,11,0,0,1,10.95-10.95h36.05v21.8A11,11,0,0,1,297,148.47Z" transform="translate(-260.94 -115.72)" style="fill:url(#Безымянный_градиент_10)"/><path d="M285.74,125.26H275.14a2.57,2.57,0,0,0-2.57,2.57v8.53a2.57,2.57,0,0,0,2.57,2.57h10.59a2.57,2.57,0,0,0,2.57-2.57v-8.53A2.57,2.57,0,0,0,285.74,125.26Z" transform="translate(-260.94 -115.72)" style="fill:#f1f4fa"/><path d="M296.06,126.6a.51.51,0,0,0-.52,0L289.86,130a.51.51,0,0,0-.25.44v3.1a.51.51,0,0,0,.2.41l5.68,4.41a.51.51,0,0,0,.83-.41V127A.51.51,0,0,0,296.06,126.6Z" transform="translate(-260.94 -115.72)" style="fill:#f1f4fa"/></svg>