<svg id="Слой_1" data-name="Слой 1" xmlns="http://www.w3.org/2000/svg" xmlns:xlink="http://www.w3.org/1999/xlink" viewBox="0 0 47 32.75"><defs><linearGradient id="Безымянный_градиент_10" x1="533.94" y1="132.04" x2="580.94" y2="132.04" gradientUnits="userSpaceOnUse"><stop offset="0" stop-color="#009dff"/><stop offset="1" stop-color="#00f89c"/></linearGradient></defs><title>icon-gif</title><path d="M570,148.41H533.94v-21.8a11,11,0,0,1,10.95-10.95h36.05v21.8A11,11,0,0,1,570,148.41Z" transform="translate(-533.94 -115.66)" style="fill:url(#Безымянный_градиент_10)"/><path d="M550.64,138.06c-3.41,0-7-1.1-7-6s3.62-6.05,7-6.05a29.15,29.15,0,0,1,3.23.23v3.31a20.94,20.94,0,0,0-2.4-.27,7.81,7.81,0,0,0-1.14,0c-1.2.08-3,.32-3,2.8s2,2.78,3.37,2.78c.48,0,1-.06,1.54-.11v-1.24h-2.49V131H555v6.36A14.41,14.41,0,0,1,550.64,138.06Z" transform="translate(-533.94 -115.66)" style="fill:#f1f4fa"/><path d="M556.83,126.24h3.69v11.61h-3.69Z" transform="translate(-533.94 -115.66)" style="fill:#f1f4fa"/><path d="M566,129.34v1.71h4.13v2.65H566v4.15H562.3V126.24h9v3.1Z" transform="translate(-533.94 -115.66)" style="fill:#f1f4fa"/></svg>